<?xml version="1.0" standalone="no"?>
<?xml-stylesheet type="text/css" href="../styles/styles.css" ?>
<!DOCTYPE svg PUBLIC "-//W3C//DTD SVG 20010904//EN"
 "http://www.w3.org/TR/2001/REC-SVG-20010904/DTD/svg10.dtd">
<svg version="1.0" xmlns="http://www.w3.org/2000/svg"
 width="120.000000pt" height="166.000000pt" viewBox="0 0 120.000000 166.000000"
 preserveAspectRatio="xMidYMid meet">

<g transform="translate(0.000000,166.000000) scale(0.100000,-0.100000)"
fill="#000000" stroke="none">
<path class='paper' d="M472 1628 c-12 -6 -31 -26 -43 -44 -18 -30 -22 -32 -50 -22 -83 29
-169 -39 -169 -132 0 -31 0 -31 -44 -25 -62 10 -113 -16 -137 -69 -17 -37 -19
-70 -19 -320 0 -541 42 -806 143 -904 18 -17 59 -44 92 -59 57 -27 67 -28 210
-28 135 0 156 2 210 24 92 37 153 107 259 295 160 286 256 480 256 518 0 75
-83 146 -155 132 -50 -9 -79 -36 -122 -112 l-38 -67 -5 290 c-4 256 -7 294
-23 318 -26 41 -72 60 -129 55 l-48 -5 0 45 c0 38 -5 50 -39 83 -33 34 -44 39
-82 38 -24 0 -54 -5 -67 -11z m103 -73 l25 -24 0 -334 c0 -351 2 -367 44 -351
14 5 16 35 16 258 0 271 4 293 52 310 20 7 33 5 52 -8 l26 -16 0 -344 0 -344
-42 -7 c-121 -20 -224 -91 -267 -183 -27 -57 -23 -82 13 -82 19 0 27 8 35 33
27 81 124 151 226 163 95 10 89 5 160 141 80 153 88 163 131 163 34 0 74 -37
74 -68 0 -37 -317 -614 -372 -677 -23 -26 -61 -53 -100 -71 -58 -26 -72 -29
-183 -28 -250 0 -309 51 -362 323 -11 57 -16 176 -20 474 -3 219 -2 409 1 421
12 47 92 51 115 7 7 -12 11 -102 11 -234 0 -224 4 -246 44 -231 14 5 16 39 16
310 0 291 1 305 20 324 24 24 72 26 94 4 14 -13 16 -56 16 -314 0 -258 2 -301
16 -314 12 -12 20 -13 35 -6 18 10 19 25 19 350 0 327 1 341 20 360 27 27 56
25 85 -5z"/>
</g>
</svg>
