<?xml version="1.0" standalone="no"?>
<!DOCTYPE svg PUBLIC "-//W3C//DTD SVG 20010904//EN"
 "http://www.w3.org/TR/2001/REC-SVG-20010904/DTD/svg10.dtd">
<svg version="1.0" xmlns="http://www.w3.org/2000/svg"
 width="116.000000pt" height="131.000000pt" viewBox="0 0 116.000000 131.000000"
 preserveAspectRatio="xMidYMid meet">

<g transform="translate(0.000000,131.000000) scale(0.100000,-0.100000)"
fill="#000000" stroke="none">
<path d="M565 1291 c-11 -5 -32 -20 -47 -34 l-27 -25 -38 19 c-20 10 -50 19
-66 19 -31 0 -96 -30 -116 -54 -11 -13 -16 -13 -44 5 -68 41 -162 13 -200 -61
-17 -32 -18 -57 -14 -285 5 -273 22 -421 63 -563 62 -215 164 -288 415 -299
280 -13 418 63 537 295 28 54 66 141 84 193 28 82 32 107 33 199 0 90 -3 113
-24 157 -21 48 -89 123 -110 123 -5 0 -11 45 -13 99 -2 82 -7 105 -24 127 -52
71 -117 89 -189 54 l-46 -22 -22 20 c-40 38 -105 52 -152 33z m95 -68 c14 -9
28 -22 32 -27 9 -13 11 -116 2 -116 -3 0 -25 5 -49 11 -32 8 -53 8 -75 1 l-30
-11 0 53 c0 54 10 75 45 94 28 16 47 15 75 -5z m220 -13 c5 0 18 -10 30 -22
17 -18 20 -35 20 -101 0 -68 -2 -78 -16 -73 -8 3 -44 14 -80 23 l-64 17 0 56
c0 46 4 60 23 77 26 24 47 33 65 27 8 -2 18 -4 22 -4z m-433 -36 c22 -24 23
-31 20 -191 l-3 -166 -29 -24 c-33 -29 -77 -26 -110 8 -18 17 -20 35 -23 172
-2 130 0 157 15 187 28 55 87 61 130 14z m-235 -24 l30 -30 -4 -126 c-3 -118
-4 -127 -27 -145 -30 -24 -82 -24 -112 0 -23 18 -24 25 -24 151 l0 132 28 24
c38 32 72 31 109 -6z m584 -169 c187 -53 199 -58 230 -93 93 -102 75 -296 -51
-548 -104 -207 -232 -279 -475 -267 -233 13 -319 76 -369 272 -24 94 -51 291
-51 374 l0 58 41 -11 c32 -8 49 -7 86 6 46 17 46 17 65 -8 47 -59 137 -72 201
-29 l37 26 31 -23 c22 -16 43 -22 75 -22 34 1 44 -2 40 -12 -3 -7 -10 -40 -16
-74 -12 -66 -3 -136 24 -188 22 -42 81 -94 102 -90 31 5 29 46 -1 70 -56 44
-79 141 -54 233 18 72 30 93 55 99 17 5 24 13 24 30 0 26 -27 38 -140 66 -76
19 -100 32 -116 62 -27 53 8 118 64 118 15 0 104 -22 198 -49z m-181 -191 l20
-9 -20 0 c-11 0 -27 4 -35 9 -13 9 -13 10 0 9 8 0 24 -4 35 -9z"/>
</g>
</svg>
