<?xml version="1.0" standalone="no"?>
<?xml-stylesheet type="text/css" href="../styles/styles.css" ?>
<!DOCTYPE svg PUBLIC "-//W3C//DTD SVG 20010904//EN"
 "http://www.w3.org/TR/2001/REC-SVG-20010904/DTD/svg10.dtd">
<svg version="1.0" xmlns="http://www.w3.org/2000/svg"
 width="107.000000pt" height="162.000000pt" viewBox="0 0 107.000000 162.000000"
 preserveAspectRatio="xMidYMid meet">

<g transform="translate(0.000000,162.000000) scale(0.100000,-0.100000)"
fill="#000000" stroke="none">
<path d="M450 1592 c-20 -11 -43 -35 -54 -57 -19 -38 -19 -43 -2 -204 9 -91
20 -186 23 -210 l6 -44 -36 7 c-38 7 -96 -11 -129 -41 -16 -14 -20 -14 -52 1
-19 9 -46 16 -61 16 -41 0 -95 -30 -117 -64 -18 -29 -19 -45 -14 -251 10 -419
71 -610 220 -687 85 -44 288 -62 408 -37 144 31 246 123 333 302 62 127 85
206 85 287 0 112 -54 201 -147 242 -35 16 -43 24 -43 46 0 30 37 391 45 437 2
17 6 67 7 113 1 78 0 84 -27 112 -82 86 -204 43 -220 -78 -15 -112 -17 -125
-25 -111 -4 8 -10 45 -13 83 -4 38 -13 79 -22 92 -37 56 -109 76 -165 46z
m103 -69 c11 -13 22 -82 42 -261 14 -134 29 -249 32 -257 3 -8 16 -15 29 -15
30 0 29 -2 54 245 24 245 28 266 47 288 19 20 62 22 88 3 13 -9 19 -25 18 -50
-2 -63 -57 -566 -63 -576 -4 -6 -51 3 -119 21 -74 20 -123 28 -145 23 -40 -7
-34 -32 -71 310 -24 218 -25 240 -10 262 19 29 74 33 98 7z m-146 -518 c21
-15 22 -22 21 -176 -1 -174 -6 -192 -59 -204 -19 -5 -34 0 -55 18 l-29 25 0
155 c0 138 2 157 19 176 23 25 72 28 103 6z m-228 -20 c16 -8 31 -22 35 -30
10 -28 7 -213 -5 -239 -17 -37 -60 -51 -97 -32 -16 8 -32 23 -36 31 -3 9 -6
66 -6 126 0 103 1 111 25 134 28 29 45 31 84 10z m556 -146 c166 -45 204 -64
235 -114 51 -82 34 -201 -54 -380 -88 -178 -169 -244 -327 -268 -168 -24 -344
18 -404 98 -34 44 -71 164 -89 286 -24 159 -24 158 23 152 21 -3 55 0 75 7 35
11 38 10 68 -19 72 -70 185 -48 224 44 16 39 19 39 89 10 23 -9 33 -23 43 -56
28 -95 130 -207 179 -197 35 7 26 38 -27 85 -45 41 -90 106 -90 131 0 6 18 6
43 1 49 -9 106 1 143 26 33 21 31 68 -3 73 -13 2 -23 -1 -23 -6 0 -13 -47 -32
-78 -32 -53 1 -236 59 -254 81 -38 46 -7 119 51 119 14 0 93 -18 176 -41z"/>
</g>
</svg>
